<?xml version="1.0" standalone="no"?><!DOCTYPE svg PUBLIC "-//W3C//DTD SVG 1.1//EN" "http://www.w3.org/Graphics/SVG/1.1/DTD/svg11.dtd"><svg t="1738918978421" class="icon" viewBox="0 0 1024 1024" version="1.1" xmlns="http://www.w3.org/2000/svg" p-id="33726" width="256" height="256" xmlns:xlink="http://www.w3.org/1999/xlink"><path d="M132.604697 860.054297a168.319174 168.319174 0 0 1-16.833239-31.473136 151.875716 151.875716 0 0 0-22.627097 26.624l-0.660645-0.436026a85.751742 85.751742 0 0 0 17.956336 32.239484 163.205781 163.205781 0 0 1 22.50818-26.452232l-0.356748-0.50209h0.013213zM190.629161 842.804852a139.495226 139.495226 0 0 0-35.674838 20.103432c19.601342 23.433084 42.360568 36.256206 56.749419 42.605006a83.419665 83.419665 0 0 0 27.456413-24.047484c-15.445884-8.892284-32.748181-21.404903-48.517781-38.660954h-0.013213zM244.088568 789.603097c-14.494555-2.127277-39.592465-3.580697-67.650065 4.558451a167.394271 167.394271 0 0 0 19.310658 29.880981c22.534606-6.804645 43.311897-7.5776 58.922942-6.513961v-0.046245a86.412387 86.412387 0 0 0-10.325884-29.590297l-0.257651 1.711071zM207.77951 837.440413a189.037006 189.037006 0 0 0 39.612284 30.191484 85.725316 85.725316 0 0 0 8.231638-33.877884 151.248103 151.248103 0 0 0-47.857135 3.6864h0.013213zM179.801187 829.823174a183.077987 183.077987 0 0 1-18.683045-30.330219 149.319019 149.319019 0 0 0-32.298942 18.200774 152.919535 152.919535 0 0 0 16.463277 32.325368 157.213729 157.213729 0 0 1 19.991123-13.146839c4.862348-2.682219 9.711484-5.00769 14.534194-7.049084zM154.690065 784.714323a181.875613 181.875613 0 0 1-9.53311-35.172749c-9.632206 3.303226-18.379148 8.324129-25.963355 14.672929 0.026426 9.341523 0.977755 22.409084 4.664155 37.2736a164.368516 164.368516 0 0 1 30.83231-16.753961v-0.013213zM142.785239 873.491819a148.764077 148.764077 0 0 0-20.38751 24.642065c17.394787 13.338426 39.784052 19.858994 62.866994 16.304722 1.995148-0.310503 3.963871-0.713497 5.912774-1.162735a173.379716 173.379716 0 0 1-48.392258-39.784052zM88.889806 833.83329a167.737806 167.737806 0 0 1 21.147252-21.761651 174.39711 174.39711 0 0 1-6.071329-31.169239 85.619613 85.619613 0 0 0-15.075923 52.93089zM160.867097 745.835355c1.849806 11.534865 4.842529 22.712981 8.997987 33.47489 24.25889-7.366194 46.58209-8.185394 63.065187-7.068903-17.92991-19.462606-44.428387-30.112206-72.069781-26.405987z" fill="#FFDAA4" p-id="33727"></path><path d="M530.418787 845.057652c-16.251871-11.35649-32.054503-15.895123-46.839742-13.305394-13.450735 2.305652-20.631948 9.427406-28.235974 16.965368-4.18849 4.135639-8.502503 8.423226-14.534194 12.724026-20.466787 14.573832-52.389161 23.723768-77.572954 11.310245-10.259819-5.060542-15.914942-11.891613-21.906994-19.105858-7.181213-8.654452-14.606865-17.606194-29.055174-21.490787-13.060955-3.508026-26.723097-1.466632-40.7552 6.011871a102.096103 102.096103 0 0 0-0.93151-23.16222c-8.535535-55.20351-59.5968-93.283097-113.829161-84.892903-54.238968 8.390194-91.400258 60.131923-82.864723 115.335432 8.542142 55.196903 59.603406 93.283097 113.829162 84.89951 38.951639-6.018477 69.103484-34.419613 79.838967-70.385136 14.705961-11.37631 28.328465-15.478916 40.523975-12.215329 9.506684 2.55009 14.494555 8.588387 20.843354 16.205626 6.494142 7.815432 13.83391 16.674684 27.172336 23.261316 14.930581 7.379406 31.592052 8.760155 47.553239 6.276129 17.308903-2.669006 33.825032-9.883252 46.502812-18.907664 7.088723-5.040723 12.089806-10.015381 16.522736-14.402065 6.738581-6.66591 11.178116-11.079019 19.621161-12.525832 0.158555-0.033032 0.323716-0.046245 0.482271-0.079277 10.372129-1.611974 21.953239 1.995148 34.419613 10.709058a8.053265 8.053265 0 0 0 9.235819-13.193084l-0.019819-0.033032z m-283.026993 22.567638a187.543948 187.543948 0 0 1-39.612284-30.184877 150.296774 150.296774 0 0 1 47.857135-3.6864 85.725316 85.725316 0 0 1-8.231639 33.871277h-0.013212z m7.280309-50.096722c-15.611045-1.057032-36.401548-0.284077-58.922942 6.507355a168.940181 168.940181 0 0 1-17.29569-26.0096c-0.693677-1.288258-1.354323-2.576516-2.014968-3.864775 28.0576-8.139148 53.15551-6.685729 67.650065-4.558451l0.264258-1.711071a86.4256 86.4256 0 0 1 10.319277 29.596903v0.039639z m-109.369806 32.490529a152.536361 152.536361 0 0 1-16.463278-32.325368 148.050581 148.050581 0 0 1 18.200775-11.548077 152.159794 152.159794 0 0 1 14.091561-6.652697 184.1152 184.1152 0 0 0 18.683045 30.330219c-4.809497 2.048-9.658632 4.380077-14.520981 7.055691a157.253368 157.253368 0 0 0-19.991122 13.146838z m-34.829213 36.982916a85.751742 85.751742 0 0 1-17.956336-32.226271l0.660646 0.429419a151.155613 151.155613 0 0 1 22.627096-26.624 168.332387 168.332387 0 0 0 16.833239 31.473136c0.11231 0.178374 0.244439 0.336929 0.356748 0.50209a161.706116 161.706116 0 0 0-22.501574 26.445626h-0.019819z m8.733729-122.800723a81.900181 81.900181 0 0 1 25.963355-14.679535 181.875613 181.875613 0 0 0 9.539716 35.179355c-5.060542 2.094245-10.167329 4.479174-15.287329 7.234064-5.364439 2.887019-10.53729 6.077935-15.544981 9.519897a158.257548 158.257548 0 0 1-4.670761-37.2736v0.019819z m50.671484 15.108955a166.660955 166.660955 0 0 1-9.004594-33.47489c27.628181-3.699613 54.126658 6.936774 72.069781 26.39938-16.47649-1.096671-38.806297-0.290684-63.065187 7.068904z m-59.808207 32.774607a166.713806 166.713806 0 0 0-21.140645 21.761651 85.784774 85.784774 0 0 1 15.069316-52.93089c0.938116 9.182968 2.77471 19.799535 6.077936 31.169239z m12.354065 86.049032a145.890271 145.890271 0 0 1 20.394116-24.642065 173.386323 173.386323 0 0 0 48.392258 39.784052c-1.948903 0.449239-3.897806 0.858839-5.912774 1.162735-23.082942 3.567484-45.452387-2.953084-62.866994-16.304722z m89.286193 7.379406c-14.382245-6.342194-37.141471-19.171923-56.749419-42.611613a141.19969 141.19969 0 0 1 18.128103-11.931251c5.892955-3.250374 11.772697-5.945806 17.553342-8.165574 15.7696 17.269265 33.071897 29.768671 48.517781 38.660954a83.426271 83.426271 0 0 1-27.46302 24.047484h0.013213z" fill="#000000" p-id="33728"></path><path d="M646.408258 124.961032c-3.897806 2.6624-7.762581 5.833497-11.515045 9.407587l29.37889 31.215484a35.72769 35.72769 0 0 1 11.904826-8.390193c6.342194-2.75489 15.690323-4.783071 27.317677-1.645007l24.774194-43.549729c-25.500903-7.973987-58.083923-3.171097-81.853935 12.961858zM600.856774 227.407277c4.591484 6.474323 12.690994 14.137806 29.960258 5.866529 8.363768-4.010116 12.19551-17.024826 16.238658-30.832309 0.581368-1.948903 1.156129-3.930839 1.770529-5.925987l-34.531922-36.692233c-15.5648 24.509935-23.717161 53.056413-13.437523 67.584zM756.590658 128.4096l-25.09791 44.117884c7.861677 8.343948 13.338426 19.006761 16.450065 31.909161l41.422452-2.120671c-2.609548-33.924129-15.326968-58.334968-32.761394-73.926193l-0.013213 0.019819zM788.929239 234.370477l-38.059768 1.948904c-0.019819 0.918297-0.019819 1.803561-0.046245 2.721858a210.250323 210.250323 0 0 1-2.325471 22.950813L782.679535 270.864516c3.124852-12.981677 5.172852-25.144155 6.249704-36.513858v0.019819zM773.694761 301.617548l-31.829884-8.258064c-1.717677 6.580026-3.699613 13.378065-5.925987 20.38751a222.736516 222.736516 0 0 1 27.879226 13.933006 425.614039 425.614039 0 0 0 9.863432-26.082271l0.013213 0.019819z" fill="#FFFFFF" p-id="33729"></path><path d="M782.699355 270.864516l-34.181781-8.872464a309.789729 309.789729 0 0 1-6.632877 31.360825l31.829884 8.258065a343.819561 343.819561 0 0 0 8.984774-30.746426zM789.352052 202.315974l-41.422452 2.120671c2.266013 9.427406 3.250374 20.057187 2.939871 31.882736l38.066374-1.95551c1.076852-11.495226 1.175948-22.177858 0.416207-32.04129v-0.006607zM739.354426 116.504774c-3.501419-1.803561-7.214245-3.303226-11.085626-4.5056l-24.774194 43.549729a56.947613 56.947613 0 0 1 11.937859 4.789678 62.120465 62.120465 0 0 1 16.060283 12.188903l25.09791-44.117884a83.432877 83.432877 0 0 0-17.242839-11.904826zM614.294297 159.83649l34.531922 36.692233c3.415535-11.211148 7.617239-22.679948 15.445884-30.9248l-29.37889-31.215484c-7.551174 7.201032-14.626684 16.027252-20.598916 25.448051z" fill="#FFDAA4" p-id="33730"></path><path d="M685.036181 187.993187l0.660645 0.369961-0.548336-0.581367-0.112309 0.211406z" fill="#000000" p-id="33731"></path><path d="M940.586942 746.126039c-2.028181-7.557781-6.507355-15.690323-13.305394-24.192826l-0.145342-0.178374c-2.2528-2.840774-7.293523-10.596748-18.332903-27.595149-11.78591-18.167742-18.280052-28.16991-23.935174-43.278864-3.415535-9.136723-5.443716-14.580439-6.520568-22.594065-1.123097-8.443045-0.759742-16.337755-0.462451-22.699767 0.218013-4.723613 0.574761-12.631535-0.792775-13.662142a6.25631 6.25631 0 0 0-2.820954-1.156129c-0.905084 0-1.678039 0.416206-2.444387 0.865445-2.708645 1.611974-3.706219 4.82271-3.996904 6.104361a6.23649 6.23649 0 0 1-0.772955 1.803561 217.18049 217.18049 0 0 1-22.904567 54.38431 6.480929 6.480929 0 0 1-5.833497 3.124852 6.395045 6.395045 0 0 1-2.966297-0.83902 6.157213 6.157213 0 0 1-2.378322-8.535535 203.9808 203.9808 0 0 0 22.838503-56.101987c3.382503-20.189316 4.717006-40.708955 3.897806-61.05022l-0.033032-0.951329c-0.436026-10.775123-0.964542-23.954994-2.853987-38.561858a139.482013 139.482013 0 0 0-10.107871-4.029935c-6.85089-2.36511-13.62911-3.911019-20.149677-4.029936-6.540387-0.125523-12.842942 1.182555-18.722684 4.485781-17.414606 9.777548-12.512619 26.73631-30.376465 36.414761-7.570994 4.109213-16.978581 5.688155-27.2384 5.073755-25.646245-1.52609-56.63711-16.747355-77.738116-40.266323a105.049187 105.049187 0 0 1-11.35649-15.062709c-19.152103-30.81249-19.601342-69.116697-6.877316-100.880516 4.974658-12.433342 11.964284-23.855897 20.651767-33.441858a102.888877 102.888877 0 0 1 30.198091-22.825291c-58.856877-15.914942-109.06591-2.556697-134.375226 7.168a203.848671 203.848671 0 0 0-61.155923 36.778116c4.882168 8.826219 7.05569 20.017548 5.899562 30.151846a44.527484 44.527484 0 0 1-5.192671 16.331148 44.243406 44.243406 0 0 1-6.698942 9.116903 44.250013 44.250013 0 0 1-4.029936 3.765678 49.072723 49.072723 0 0 1-4.360258 3.230554 44.837987 44.837987 0 0 1-14.190658 6.130788 35.608774 35.608774 0 0 1-9.381161 0.971148 31.578839 31.578839 0 0 1-2.768103-0.244439 35.509677 35.509677 0 0 1-10.953497-3.316439 217.689187 217.689187 0 0 0-18.696258 49.066117 312.300181 312.300181 0 0 1 62.833961 15.815845 242.212335 242.212335 0 0 1 44.197161-3.851562c22.84511 0.145342 45.55809 3.501419 67.577394 10.041807a6.395045 6.395045 0 0 1 3.864774 3.138064 6.144 6.144 0 0 1 0.350142 4.875562 142.705961 142.705961 0 0 1-28.16991 47.665548 144.661471 144.661471 0 0 1-21.07458 19.330478c6.85089 8.522323 19.237987 26.557935 24.021058 50.367587 4.241342 21.021729 1.083458 51.067871 0.872051 52.944103-0.033032 0.336929-0.11231 0.660645-0.198193 0.984361 0 0.528516 0 1.076852-0.138736 1.625187a74.692542 74.692542 0 0 1-6.9632 17.92991c-0.158555 0.290684-4.102606 7.537961-9.889858 14.058529-12.241755 13.853729-26.604181 20.394116-41.818839 27.324284l-2.748283 1.255226-10.6496 4.849135c7.927742 5.020903 15.478916 10.583535 22.534606 16.70111a188.336723 188.336723 0 0 0-25.639639-15.300542c-6.395045 2.913445-12.241755 5.589058-17.573161 8.066477a188.449032 188.449032 0 0 1 35.787148 24.404233 188.700077 188.700077 0 0 0-40.893935-21.999484c-17.751535 8.376981-29.768671 14.851303-39.869936 22.871535-15.9744 12.677781-42.697497 33.891097-38.079587 57.291149 1.275045 6.395045 4.769858 12.684387 10.391949 18.669832a6.117574 6.117574 0 0 1 1.222193 6.560206c-0.482271 1.175948-1.400568 4.247948 0.6144 7.3728 0.50209 0.772955 2.014968 3.124852 5.701368 4.512207 3.917626 1.466632 7.597419 1.499665 10.682632 0.079277 1.460026-0.660645 2.768103-1.6384 3.897807-2.880413a6.573419 6.573419 0 0 1 8.971561-0.693677c0.673858 0.548335 1.803561 1.255226 3.217342 1.466632 1.658219 0.270865 4.736826-0.079277 5.959019-2.028181 0.872052-1.400568 0.50209-3.210735 0.376568-3.726038a6.163819 6.163819 0 0 1 3.091819-6.923562 6.606452 6.606452 0 0 1 7.716336 1.030607c0.330323 0.323716 1.255226 1.096671 2.556697 1.208981 1.255226 0.132129 2.576516-0.356748 3.25698-1.142917 1.043819-1.189161 1.057032-3.818529-0.726709-5.992051a5.959019 5.959019 0 0 1-1.255226-2.754891v-0.033032c-1.948903-6.170426-1.915871-11.871794 0.079277-16.932335 7.234065-18.346116 35.053832-19.779716 67.280104-21.418116 13.080774-0.680465 26.610787-1.374142 38.773264-3.290013 2.014968-0.31711 4.029935-0.693677 6.038297-1.096671-3.752465-10.94689-4.280981-24.932748-1.526091-37.154684 4.41311-19.700439 16.879484-32.959587 29.682788-38.5024 5.833497-2.523665 11.746271-3.441961 16.97858-2.622761 17.896877 2.77471 29.781884 25.91711 32.17342 41.607432 12.638142-9.685058 25.038452-21.120826 37.187716-34.294091a6.580026 6.580026 0 0 1 9.10369-0.48227 6.124181 6.124181 0 0 1 0.515303 8.826219c-0.971148 1.043819-1.948903 2.074426-2.920051 3.105032l0.277471 0.099097c0.191587 0.079277 20.902813 8.958348 55.031742 9.249032 33.078503 0.270865 61.473032-25.144155 61.763716-25.401806a6.606452 6.606452 0 0 1 7.993806-0.63422 169.950968 169.950968 0 0 0 39.295174 18.881239c0.310503 0.099097 31.182452 10.048413 53.835975 3.640155 3.124852-0.885265 5.298374-2.127277 5.945806-3.415536 0.687071-1.334503 0.330323-3.190916-0.118916-4.796283l-0.013213 0.046245z" fill="#FFFFFF" p-id="33732"></path><path d="M435.338735 761.76351a367.265858 367.265858 0 0 0 25.963355-2.622762c0.198194-0.033032 0.369961 0 0.561549-0.013213a245.76 245.76 0 0 1 16.516129-8.99138 186.837058 186.837058 0 0 0-32.748181-6.170426c-6.639484-0.885265-5.219097-10.325884 1.413781-9.275458 13.338426 2.563303 26.353135 6.5536 38.786477 11.805729 5.126606-2.464206 10.715665-5.060542 16.879484-7.89471l-2.246194-0.885264a188.105497 188.105497 0 0 0-47.407896-10.920465c-6.639484-0.885265-5.219097-10.325884 1.41378-9.275458a194.137187 194.137187 0 0 1 53.446194 18.696258c2.351897-1.076852 4.756645-2.153703 7.267097-3.316438l11.230967-5.12 2.77471-1.275046a441.839484 441.839484 0 0 0 9.817187-4.558451 188.964335 188.964335 0 0 0-83.664103-9.295278c-6.672516 0.528516-7.399226-8.984774-0.680465-9.354735a195.08191 195.08191 0 0 1 85.837626 17.91009c9.8304-4.849135 18.590555-10.226787 26.227613-18.861419a73.232516 73.232516 0 0 0 8.277884-11.772697 62.232774 62.232774 0 0 0 5.813677-14.996645c0-0.052852 0.033032-0.099097 0.052852-0.145342 0-0.132129-0.033032-0.264258-0.033032-0.389781 0-0.145342 0-0.303897 0.033032-0.449238 0.026426-0.290684 3.217342-29.847948-0.693677-49.270916a89.847742 89.847742 0 0 0-1.585549-6.527175c-12.010529-5.635303-24.206039-9.955923-35.628593-9.731303a39.030916 39.030916 0 0 0-8.680878 1.129703c-2.8672 0.72671-5.668335 1.803561-8.37698 3.336258-17.408 9.777548-12.512619 26.73631-30.376465 36.421368-7.570994 4.102606-16.978581 5.681548-27.2384 5.073755-25.646245-1.532697-56.63711-16.753961-77.738116-40.272929a105.260594 105.260594 0 0 1-11.35649-15.06271 98.607897 98.607897 0 0 1-4.82271-8.727122c-11.653781-23.743587-13.345032-50.88289-7.300129-75.723149a120.138323 120.138323 0 0 1 11.594323-29.729032 217.550452 217.550452 0 0 0-46.793497 9.116903 6.606452 6.606452 0 0 1-2.219768 0.284078 6.428077 6.428077 0 0 1-5.899561-4.333833 6.216671 6.216671 0 0 1 4.142245-7.87489 230.320723 230.320723 0 0 1 43.71489-9.116903 123.322632 123.322632 0 0 1 13.305394-39.559432c-3.527845 0.013213-7.05569 0.257652-10.517471 0.726709-23.386839 3.091819-39.20929 15.492129-54.503226 27.476233-21.332232 16.70111-34.538529 33.296516-45.155097 46.615122-12.340852 15.498735-24.001239 30.138632-32.232877 47.004903-10.14751 20.790503-19.951484 56.035923-8.984774 105.90142a6.091148 6.091148 0 0 1-0.356749 3.739251c-0.145342 0.330323-13.939613 32.398039-7.7824 51.001807 4.228129 12.770271 20.024155 22.904568 46.938839 30.138632l2.464206 0.673858c2.6624 0.72671 5.41729 1.479845 8.793187 2.272619 20.863174 4.908594 41.5744 7.504929 82.071949 10.273033 47.9232 3.270194 63.19071 2.272619 69.698064 1.849806l-0.013213 0.066065z m-183.130838-48.85471c-13.62911-0.515303-24.450477-7.101935-24.159794-14.719174 0.284077-7.617239 11.56129-13.384671 25.1904-12.882581 13.62911 0.508697 24.450477 7.101935 24.159794 14.719174-0.290684 7.617239-11.56129 13.384671-25.1904 12.882581z m21.067974-39.123406c-12.743845-0.482271-22.594065-13.338426-22.032516-28.738065 0.574761-15.393032 11.363097-27.482839 24.113548-27.007174 7.742761 0.284077 14.415277 5.186065 18.346116 12.420129a11.323458 11.323458 0 0 0-4.789677-1.2288c-4.294194-0.158555-7.861677 1.803561-7.954168 4.399897-0.099097 2.589729 3.303226 4.816103 7.59742 4.974658 3.36929 0.132129 6.25631-1.057032 7.399225-2.820955 1.057032 3.402323 1.578942 7.108542 1.4336 10.96671-0.581368 15.406245-11.369703 27.482839-24.113548 27.020387v0.013213z m42.849445 11.759483l-2.708645 15.17502q0.033032 0.013213 0.046245 0.033032l8.925316 9.196181a2.299045 2.299045 0 0 1-0.099097 3.316438 2.378323 2.378323 0 0 1-1.737496 0.627613 2.503845 2.503845 0 0 1-1.678039-0.739922l-7.597419-7.828645c-3.124852 1.783742-6.738581 3.864774-7.201033 4.201703a2.477419 2.477419 0 0 1-3.36929-0.541729 2.272619 2.272619 0 0 1 0.50209-3.237162c0.693677-0.50209 6.295948-3.706219 8.984775-5.238916l2.774709-15.492129q0.033032-0.066065 0.033033-0.099096a10.623174 10.623174 0 0 1-2.754891-1.783742c-2.437781-2.081032-5.014297-4.254555-4.670761-6.659304 0.449239-3.171097 5.747613-5.153032 9.856826-5.040722 4.314013 0.132129 9.566142 2.642581 9.724696 5.767432 0.11231 2.464206-2.95969 4.347045-6.969806 6.831071-0.759742 0.462452-1.420387 0.805987-2.061213 1.010787a1.11649 1.11649 0 0 1 0 0.515303v-0.013213z m122.510039 27.799949c-0.290684 7.623845-11.56129 13.384671-25.1904 12.88258-13.62911-0.508697-24.450477-7.095329-24.159794-14.719174 0.290684-7.617239 11.56129-13.384671 25.1904-12.88258 13.62911 0.515303 24.450477 7.101935 24.159794 14.719174z m-52.257032-89.847742c8.964955 0.336929 16.469884 6.798039 19.964696 15.928155-1.32129-0.72671-3.032361-1.222194-4.9152-1.288258-4.294194-0.158555-7.861677 1.803561-7.954167 4.399896-0.099097 2.596335 3.303226 4.816103 7.597419 4.974658 2.933265 0.11231 5.496568-0.792774 6.87071-2.173522 0.383174 2.226374 0.561548 4.512206 0.475664 6.877316-0.574761 15.399639-11.369703 27.482839-24.113548 27.020387-12.737239-0.488877-22.594065-13.345032-22.032516-28.738064 0.581368-15.399639 11.369703-27.482839 24.113548-27.020387v0.019819z" fill="#FFFFFF" p-id="33733"></path><path d="M674.921703 339.294142c-8.680877 9.579355-15.670503 21.008516-20.651768 33.435252-12.724026 31.763819-12.274787 70.068026 6.877317 100.880516a105.108645 105.108645 0 0 0 11.363096 15.062709c21.0944 23.518968 52.085265 38.740232 77.73151 40.272929 10.259819 0.607794 19.667406-0.964542 27.2384-5.073754 17.844026-9.698271 12.968465-26.643819 30.376465-36.421368 5.879742-3.303226 12.182297-4.591484 18.716077-4.479174 6.540387 0.132129 13.325213 1.658219 20.149677 4.029935a118.869884 118.869884 0 0 1 10.121084 4.029936c-3.831742-29.722426-13.259148-65.384052-38.898787-98.925007-15.208052-19.872206-49.000052-55.811303-104.672619-73.252335-2.735071-0.858839-5.443716-1.631794-8.145755-2.351897a102.822813 102.822813 0 0 0-30.204697 22.82529v-0.033032zM367.067665 515.303226c-6.038297 24.840258-4.360258 51.979561 7.300129 75.723148 1.453419 2.95969 3.058787 5.879742 4.829316 8.727123a105.108645 105.108645 0 0 0 11.363096 15.062709c21.0944 23.518968 52.085265 38.740232 77.73151 40.266323 10.259819 0.6144 19.667406-0.964542 27.2384-5.073755 17.844026-9.691665 12.968465-26.637213 30.376465-36.414761a34.31391 34.31391 0 0 1 11.230967-3.930839c1.915871-0.330323 3.864774-0.50209 5.826891-0.528516 11.409342-0.218013 23.618065 4.102606 35.6352 9.724697-7.168-25.791587-23.631277-42.829626-23.822865-43.008a6.203458 6.203458 0 0 1-1.757316-4.928413 6.210065 6.210065 0 0 1 2.708645-4.492387 133.086968 133.086968 0 0 0 24.377807-21.332232 130.292439 130.292439 0 0 0 18.93409-27.654607c-10.259819 7.022658-24.25889 13.642323-41.785806 15.208052-3.560877 0.323716-7.134968 0.396387-10.709059 0.270864a87.205161 87.205161 0 0 1-15.591225-2.014967c-3.468387-0.772955-5.655123-4.122426-4.868955-7.48511 0.772955-3.36929 4.234735-5.483355 7.703122-4.703794 7.392619 1.625187 14.897548 2.127277 22.276955 1.466633 16.265084-1.453419 29.041961-8.086297 37.993703-14.705962a226.82591 226.82591 0 0 0-47.837316-5.364438c-14.534194-0.085884-29.17409 1.255226-43.490271 3.944051-1.189161 0.224619-2.417961 0.11231-3.547664-0.303897a298.07649 298.07649 0 0 0-113.994323-18.6368c-2.173523 0.11231-4.347045 0.270865-6.520567 0.449239a116.557626 116.557626 0 0 0-6.831071 14.560619c-1.915871 4.928413-3.494813 10.002168-4.769858 15.17502zM640.482271 729.748645c-5.245523-0.812594-11.145084 0.09249-16.978581 2.622761-12.803303 5.536206-25.269677 18.795355-29.682787 38.495794-2.741677 12.221935-2.206555 26.207794 1.532697 37.16129 26.478658-5.265342 52.329703-17.540129 77.295484-36.679019-2.378323-15.690323-14.269935-38.832723-32.166813-41.607432zM471.641187 430.106426a35.608774 35.608774 0 0 0 9.381161-0.964542 44.474632 44.474632 0 0 0 14.184052-6.137394 46.126245 46.126245 0 0 0 8.390194-6.989625c2.563303-2.688826 4.835923-5.747613 6.705548-9.116904a44.501058 44.501058 0 0 0 5.186064-16.331148c1.142916-10.134297-1.030606-21.332232-5.892954-30.158452-19.026581 16.582194-35.390761 36.949884-48.940594 61.037007-0.951329 1.671432-1.836594 3.382503-2.735071 5.086967 3.448568 1.658219 7.121755 2.840774 10.953497 3.316439 0.918297 0.11231 1.836594 0.211406 2.77471 0.244439v0.013213z" fill="#FFDAA4" p-id="33734"></path><path d="M953.059923 743.001187c-2.484026-9.196181-7.736155-18.861419-15.597833-28.718245l-0.132129-0.178374c-1.863019-2.351897-7.452077-10.953497-17.599587-26.597574-12.162477-18.72929-17.751535-27.588542-22.759226-40.993033-3.270194-8.760155-4.928413-13.160052-5.813677-19.825961-0.990968-7.359587-0.660645-14.355819-0.369961-20.506426 0.482271-10.259819 0.885265-19.119071-5.787252-24.126761a18.828387 18.828387 0 0 0-10.702452-3.785497c-1.294865 0-2.490632 0.145342-3.567483 0.383174 1.902658-16.139561 2.543484-32.424465 1.902658-48.597058l-0.033033-0.951329c-1.367535-34.161961-3.659974-91.327587-44.296258-144.469884a227.64511 227.64511 0 0 0-50.711122-48.161032c55.527226-131.759071 20.942452-207.079226-30.653936-233.76929-32.021471-16.562374-77.156748-12.690994-109.739767 9.4208-35.826787 24.311742-73.047535 90.977445-49.58142 124.1088 12.003923 16.945548 29.880981 20.876387 50.387407 11.052593 14.732387-7.05569 19.746684-24.080516 24.576-40.523974 4.591484-15.644077 8.945135-30.416103 20.215742-35.298271 7.366194-3.18431 15.756387-2.332077 24.919535 2.563303 38.337239 20.440361 29.795097 81.21311 13.179871 134.084542-1.2288-0.402994-2.437781-0.825806-3.673187-1.20898-66.190039-20.744258-123.164077-5.721187-151.221678 5.086967-49.548387 19.072826-88.79071 53.8624-116.636903 103.430607a230.736929 230.736929 0 0 0-22.983845 58.566193c-8.654452-0.872052-17.374968-1.387355-26.095484-1.532696a6.177032 6.177032 0 0 0-1.466632-0.178375 227.308181 227.308181 0 0 0-13.642323 0.277471h-0.336929a111.563148 111.563148 0 0 1 16.331149-40.827871 6.077935 6.077935 0 0 0 0.356748-6.064722 6.44129 6.44129 0 0 0-5.086968-3.508026 98.977858 98.977858 0 0 0-23.829471 0.224619c-26.947716 3.57409-44.956903 17.672258-60.838812 30.12542-22.501574 17.619406-36.223174 34.855639-47.23613 48.689548-12.235148 15.353394-24.860077 31.215484-33.692903 49.284129-10.867613 22.283561-21.404903 59.682684-10.352309 111.985961-1.645006 4.029935-5.12 13.226116-7.39262 23.954994a194.348594 194.348594 0 0 0-92.219458-3.527845c30.753032-3.36929 62.2592 0.885265 90.719794 12.274787-0.270865 2.186735-0.482271 4.41311-0.594581 6.619664a196.49569 196.49569 0 0 0-45.340077 1.717678 192.062761 192.062761 0 0 0-47.83071 14.005677 189.948697 189.948697 0 0 1 93.349161-6.659303c0.303897 3.290013 0.918297 6.474323 1.902658 9.473652a197.665032 197.665032 0 0 0-45.584516 1.737496 192.763045 192.763045 0 0 0-47.830709 14.005678c31.089961-10.345703 64.934813-12.472981 96.936464-5.998658a5.179458 5.179458 0 0 0 1.407174 0.066064c8.614813 12.354065 25.368774 21.761652 50.849858 28.592723l2.398142 0.660645c2.77471 0.753135 5.64191 1.54591 9.249032 2.378323 21.371871 5.040723 43.404387 7.815432 84.212439 10.616567 14.639897 0.997574 26.300284 1.625187 35.754116 1.968723 18.31969 0.673858 28.341677 0.369961 35.714478-0.118916 1.717677-0.11231 3.461781-0.237832 5.186064-0.383174-18.101677 14.719174-41.977394 36.982916-36.533677 64.49218 1.532697 7.703123 5.265342 15.128774 11.145084 22.085368a19.621161 19.621161 0 0 0 2.840774 14.805058 24.377806 24.377806 0 0 0 11.997316 9.552929c3.124852 1.175948 6.295948 1.816774 9.387768 1.929084a25.07809 25.07809 0 0 0 11.409342-2.180129c1.4336-0.660645 2.781316-1.440206 4.056361-2.358503 1.466632 0.607794 2.97951 1.043819 4.545239 1.268438 6.388439 0.971148 14.752206-1.090065 18.973729-7.940954a16.384 16.384 0 0 0 1.222193-2.411355h0.22462c5.443716 0.528516 10.920465-1.565729 14.336-5.476749 4.895381-5.608877 5.00769-14.071742 0.449238-20.638554-1.043819-3.382503-1.090065-6.295948-0.158554-8.654452 4.254555-10.788335 30.521806-12.136052 55.943432-13.444129 13.430916-0.693677 27.317677-1.400568 40.154013-3.428748 40.675923-6.428077 79.766297-27.94529 116.412284-64.029729 0.132129 0.244439 0.244439 0.50209 0.402993 0.726709a6.5536 6.5536 0 0 0 5.668336 2.801136c6.269523 2.351897 24.470297 8.244852 51.662451 9.262245 2.028181 0.079277 4.102606 0.132129 6.210065 0.145342 30.984258 0.264258 57.205265-17.943123 66.804438-25.547149a182.939252 182.939252 0 0 0 38.20511 17.731717c1.420387 0.469058 34.987768 11.323458 61.585342 3.805316 6.844284-1.93569 11.515045-5.252129 13.866942-9.843613 2.906839-5.714581 1.387355-11.389523 0.8192-13.530013l0.052852 0.033032z m-18.319691 11.363097c-22.660129 6.421471-53.525471-3.534452-53.829367-3.646761a169.997213 169.997213 0 0 1-39.308388-18.881239 6.606452 6.606452 0 0 0-7.980593 0.627613c-0.290684 0.264258-28.691819 25.679277-61.763716 25.401806-34.148748-0.290684-54.846761-9.143329-55.038349-9.249032l-0.277471-0.09249c0.971148-1.030606 1.948903-2.061213 2.920052-3.105033a6.124181 6.124181 0 0 0-0.515303-8.826219 6.580026 6.580026 0 0 0-9.103691 0.482271c-12.142658 13.173265-24.549574 24.609032-37.194322 34.287484-24.965781 19.13889-50.816826 31.413677-77.295484 36.679019-2.014968 0.402994-4.016723 0.772955-6.044903 1.096671-12.142658 1.915871-25.672671 2.609548-38.773265 3.283407-32.213058 1.664826-60.032826 3.078606-67.280103 21.424722-1.995148 5.073755-2.028181 10.768516-0.079277 16.932336v0.033032c0.198194 0.964542 0.594581 1.915871 1.275045 2.75489 1.770529 2.180129 1.75071 4.796284 0.726709 5.992052-0.700284 0.792774-2.014968 1.255226-3.25698 1.142916a4.479174 4.479174 0 0 1-2.563303-1.208981 6.593239 6.593239 0 0 0-7.716336-1.030606 6.183639 6.183639 0 0 0-3.091819 6.923561c0.132129 0.515303 0.482271 2.318865-0.369962 3.719432-1.208981 1.968723-4.294194 2.312258-5.959019 2.034788a6.910348 6.910348 0 0 1-3.223948-1.466633 6.566813 6.566813 0 0 0-8.971562 0.693678 11.759484 11.759484 0 0 1-3.897806 2.880413c-3.078606 1.400568-6.765006 1.387355-10.676026-0.079278-3.693006-1.387355-5.205884-3.739252-5.701368-4.512206a7.960774 7.960774 0 0 1-0.6144-7.379407 6.163819 6.163819 0 0 0-1.222193-6.5536c-5.64191-5.992052-9.136723-12.274787-10.391949-18.669832-4.624516-23.400052 22.1184-44.619974 38.079588-57.291148 10.101265-8.026839 22.111794-14.501161 39.863329-22.878142a188.706684 188.706684 0 0 1 40.893935 22.00609 187.524129 187.524129 0 0 0-35.787148-24.404232c5.331406-2.477419 11.164903-5.139819 17.573161-8.066478a190.563097 190.563097 0 0 1 25.646245 15.300542 184.5248 184.5248 0 0 0-22.534606-16.701109l10.642993-4.849136 2.754891-1.255226c15.208052-6.930168 29.577084-13.470555 41.818838-27.324284 5.780645-6.520568 9.731303-13.767845 9.889858-14.058529 3.078606-5.655123 5.430503-11.693419 6.956594-17.929909a6.262916 6.262916 0 0 0 0.145342-1.625187c0.079277-0.323716 0.165161-0.647432 0.198193-0.984362 0.2048-1.902658 3.36929-31.922374-0.872051-52.944103-4.783071-23.809652-17.189987-41.851871-24.021058-50.367587a145.559948 145.559948 0 0 0 21.07458-19.330477 142.276542 142.276542 0 0 0 28.16991-47.665549 6.137394 6.137394 0 0 0-0.356748-4.875561 6.395045 6.395045 0 0 0-3.864775-3.144671 243.124026 243.124026 0 0 0-67.570787-10.0352 240.990142 240.990142 0 0 0-44.197161 3.851561A311.005316 311.005316 0 0 0 439.18369 475.664516a217.682581 217.682581 0 0 1 18.702865-49.066116c0.905084-1.711071 1.783742-3.415535 2.735071-5.086968 13.549832-24.100335 29.914013-44.461419 48.940593-61.037006a203.861884 203.861884 0 0 1 61.155923-36.77151c25.30271-9.744516 75.511742-23.102761 134.375226-7.168 2.708645 0.72671 5.410684 1.493058 8.145755 2.351897 55.652748 17.441032 89.471174 53.380129 104.672619 73.258942 25.659458 33.534348 35.080258 69.195974 38.898787 98.911793 1.889445 14.613471 2.417961 27.786735 2.853987 38.561858l0.033032 0.951329a297.534761 297.534761 0 0 1-3.897806 61.043613 204.423432 204.423432 0 0 1-22.84511 56.108594 6.150606 6.150606 0 0 0 2.378323 8.535535c0.944723 0.528516 1.95551 0.805987 2.972903 0.83902a6.507355 6.507355 0 0 0 5.833497-3.124852 217.167277 217.167277 0 0 0 22.904568-54.377703 6.381832 6.381832 0 0 0 0.772954-1.803561c0.303897-1.308077 1.288258-4.492387 3.990297-6.104362 0.772955-0.469058 1.532697-0.872052 2.444387-0.872051a6.276129 6.276129 0 0 1 2.827562 1.162735c1.367535 1.030606 0.990968 8.938529 0.786167 13.655536-0.290684 6.342194-0.660645 14.256723 0.462452 22.699767 1.083458 8.020232 3.105032 13.463948 6.527174 22.594065 5.655123 15.108955 12.149265 25.130942 23.935174 43.285471 11.032774 17.005006 16.080103 24.774194 18.332904 27.588542l0.145341 0.178374c6.798039 8.50911 11.277213 16.641652 13.305394 24.192826 0.436026 1.631794 0.786168 3.468387 0.11231 4.80289-0.660645 1.288258-2.820955 2.530271-5.945807 3.415536v-0.033033z m-659.984516-7.002839l-2.464206-0.673858c-26.927897-7.214245-42.717316-17.348542-46.938839-30.132026-6.144-18.610374 7.637058-50.67809 7.7824-51.001806a6.124181 6.124181 0 0 0 0.356748-3.739252c-10.953497-49.852284-1.162735-85.110916 8.984775-105.901419 8.231639-16.866271 19.892026-31.512774 32.239483-47.004903 10.609961-13.318606 23.816258-29.914013 45.141884-46.615123 15.287329-11.984103 31.103174-24.377806 54.509833-27.482839 3.4816-0.462452 6.989626-0.70689 10.517471-0.726709a123.316026 123.316026 0 0 0-13.305394 39.559432 230.756748 230.756748 0 0 0-43.71489 9.116903 6.210065 6.210065 0 0 0-4.142246 7.881497c0.858839 2.576516 3.270194 4.234735 5.899562 4.333832 0.72671 0.033032 1.479845-0.066065 2.219768-0.290684a217.510813 217.510813 0 0 1 53.314064-9.566142c15.161806-0.50209 30.396284 0.158555 45.412748 1.962117a298.89569 298.89569 0 0 1 68.588181 16.674683c1.123097 0.416206 2.351897 0.528516 3.541058 0.303897a227.896155 227.896155 0 0 1 91.334194 1.413781c-8.958348 6.626271-21.735226 13.259148-38.00031 14.712568-7.399226 0.660645-14.884335 0.158555-22.276955-1.466633-3.461781-0.772955-6.930168 1.334503-7.703122 4.703794-0.786168 3.36929 1.407174 6.712155 4.868954 7.48511 5.166245 1.149523 10.385342 1.810168 15.591226 2.014967 3.57409 0.132129 7.148181 0.052852 10.709058-0.270864 17.526916-1.565729 31.525987-8.185394 41.785807-15.208052a129.697858 129.697858 0 0 1-18.927484 27.661213 132.551845 132.551845 0 0 1-24.384413 21.325626 6.130787 6.130787 0 0 0-0.951329 9.4208c0.178374 0.178374 16.635045 17.216413 23.822864 43.008 0.594581 2.114065 1.123097 4.287587 1.578942 6.520568 3.911019 19.422968 0.72671 48.986839 0.693678 49.277522-0.019819 0.145342-0.033032 0.290684-0.033032 0.449239 0 0.132129 0.013213 0.257652 0.033032 0.389781 0 0.046245-0.052852 0.09249-0.052852 0.145341a62.900026 62.900026 0 0 1-5.813677 14.996646c-0.033032 0.066065-3.474994 6.342194-8.277884 11.772696-7.637058 8.634632-16.397213 14.012284-26.227613 18.86142a194.85729 194.85729 0 0 0-85.831019-17.910091c-6.718761 0.369961-5.992052 9.889858 0.673858 9.354736a188.977548 188.977548 0 0 1 83.664103 9.295277c-3.157884 1.532697-6.428077 3.012542-9.810581 4.558452l-2.787922 1.275045a7050.180542 7050.180542 0 0 0-18.491458 8.436439 193.436903 193.436903 0 0 0-53.446194-18.696258c-6.632877-1.050426-8.053265 8.390194-1.413781 9.275458 16.08671 1.559123 32.087535 5.23231 47.401291 10.920464l2.259406 0.885265c-6.170426 2.840774-11.759484 5.430503-16.88609 7.89471a193.720981 193.720981 0 0 0-38.779871-11.80573c-6.639484-1.050426-8.059871 8.390194-1.420387 9.275459 11.032774 1.057032 21.999484 3.157884 32.74818 6.170425-6.157213 3.072-11.567897 6.011871-16.516129 8.984775-0.191587 0-0.369961 0-0.561548 0.019819a376.673445 376.673445 0 0 1-25.963355 2.622761c-6.507355 0.416206-21.781471 1.420387-69.698064-1.849806-40.497548-2.77471-61.208774-5.364439-82.071949-10.279639-3.382503-0.792774-6.137394-1.54591-8.793187-2.266013l0.013213-0.066064z m467.128981-454.008568a314.176413 314.176413 0 0 0 6.632877-31.360825c1.242013-8.086297 2.014968-15.736568 2.318865-22.950813 0.033032-0.938116 0.033032-1.823381 0.052851-2.721858 0.303897-11.812335-0.693677-22.442116-2.953084-31.882736-3.105032-12.9024-8.568568-23.565213-16.443458-31.909161a61.426787 61.426787 0 0 0-16.053677-12.188903 56.088774 56.088774 0 0 0-11.944465-4.789678c-11.627355-3.138065-20.968877-1.090065-27.317677 1.651613a35.95231 35.95231 0 0 0-11.904826 8.390194c-7.828645 8.244852-12.023742 19.726865-15.445884 30.918193-0.607794 1.981935-1.189161 3.963871-1.770529 5.932594-4.056361 13.787665-7.89471 26.822194-16.238658 30.832309-17.282477 8.277884-25.368774 0.607794-29.960258-5.866529-10.273032-14.514374-2.127277-43.074065 13.437523-67.584 5.972232-9.427406 13.047742-18.253626 20.598916-25.454658a90.481961 90.481961 0 0 1 11.515045-9.407587c23.783226-16.139561 56.366245-20.942452 81.860542-12.961858 3.884594 1.208981 7.590813 2.708645 11.085626 4.5056a82.620284 82.620284 0 0 1 17.236232 11.904826c17.427819 15.591226 30.151845 39.982245 32.761394 73.919587 0.759742 9.876645 0.660645 20.539458-0.416207 32.04129a260.690581 260.690581 0 0 1-6.249703 36.513858 347.175639 347.175639 0 0 1-8.984774 30.746426 452.145548 452.145548 0 0 1-9.863433 26.082271 221.666271 221.666271 0 0 0-27.879225-13.939613c2.219768-6.983019 4.201703-13.800877 5.925987-20.387509v-0.033033zM933.934245 596.417239a65.938994 65.938994 0 0 0 12.968465 15.591226 5.020903 5.020903 0 0 0 6.956593-0.323717 4.690581 4.690581 0 0 0-0.336929-6.7584 55.890581 55.890581 0 0 1-11.065806-13.29218 55.011923 55.011923 0 0 1-7.478503-23.096155 4.921806 4.921806 0 0 0-5.351226-4.360258 4.809497 4.809497 0 0 0-4.472568 5.179458 64.663948 64.663948 0 0 0 8.760155 27.060026h0.019819z" fill="#000000" p-id="33735"></path><path d="M925.497806 621.548181a5.060542 5.060542 0 0 0 6.976413 0.198193 4.690581 4.690581 0 0 0 0.171768-6.784826 41.316748 41.316748 0 0 1-9.249032-14.501161 40.946787 40.946787 0 0 1-1.981936-21.048155 4.82271 4.82271 0 0 0-4.069574-5.50978 4.9152 4.9152 0 0 0-5.668335 3.944051 50.275097 50.275097 0 0 0 13.800877 43.701678h0.019819zM384.290684 679.22911c12.737239 0.482271 23.532181-11.614142 24.113548-27.013781a33.283303 33.283303 0 0 0-0.482271-6.87071c-1.387355 1.393961-3.950658 2.279226-6.864103 2.166916-4.3008-0.158555-7.696516-2.378323-7.597419-4.974658 0.09249-2.596335 3.653368-4.558452 7.954167-4.399896 1.896052 0.066065 3.587303 0.568155 4.908594 1.288258-3.494813-9.143329-10.999742-15.604439-19.951484-15.921549-12.750452-0.488877-23.538787 11.607535-24.113548 27.007175-0.581368 15.393032 9.288671 28.249187 22.032516 28.738064v-0.019819zM288.543381 638.625858c-4.294194-0.165161-7.696516-2.384929-7.59742-4.981264 0.09249-2.589729 3.653368-4.558452 7.954168-4.393291 1.836594 0.066065 3.4816 0.528516 4.783071 1.222194-3.911019-7.234065-10.583535-12.129445-18.346116-12.420129-12.743845-0.482271-23.532181 11.614142-24.113549 27.01378-0.581368 15.393032 9.295277 28.249187 22.032517 28.738065 12.743845 0.482271 23.538787-11.614142 24.113548-27.020387a32.583019 32.583019 0 0 0-1.4336-10.96671c-1.156129 1.757316-4.043148 2.946477-7.392619 2.820955v-0.013213zM325.123303 677.187716c-0.138735-3.124852-5.410684-5.655123-9.724697-5.767432-4.109213-0.11231-9.427406 1.863019-9.856825 5.040722-0.343535 2.398142 2.239587 4.571665 4.670761 6.652697 1.142916 0.964542 2.061213 1.499665 2.75489 1.783742 0 0.033032-0.033032 0.066065-0.033032 0.099097l-2.77471 15.498735c-2.688826 1.52609-8.291097 4.730219-8.984774 5.23231a2.272619 2.272619 0 0 0-0.50209 3.237161 2.490632 2.490632 0 0 0 3.36929 0.548336c0.482271-0.323716 4.096-2.417961 7.201032-4.201703l7.59742 7.828645c0.455845 0.462452 1.070245 0.70689 1.678038 0.739922a2.444387 2.444387 0 0 0 1.737497-0.627613 2.299045 2.299045 0 0 0 0.099097-3.323045l-8.91871-9.19618q-0.039639-0.013213-0.052851-0.033033l2.708645-15.168412c0.033032-0.178374 0-0.356748 0-0.52191 0.640826-0.2048 1.301471-0.541729 2.061213-1.010787 4.010116-2.484026 7.088723-4.360258 6.969806-6.831071v0.019819z" fill="#000000" p-id="33736"></path><path d="M389.265342 711.495019c-0.290684 7.617239 10.53729 14.22369 24.1664 14.719175 13.622503 0.515303 24.919535-5.265342 25.1904-12.882581 0.270865-7.617239-10.53729-14.22369-24.159794-14.725781-13.62911-0.515303-24.919535 5.271948-25.197006 12.882581zM253.22529 685.300439c-13.62911-0.515303-24.919535 5.252129-25.197006 12.88258-0.290684 7.623845 10.53729 14.230297 24.159793 14.732387 13.62911 0.508697 24.919535-5.252129 25.197007-12.889187 0.270865-7.637058-10.53729-14.22369-24.1664-14.72578z" fill="#FFBBC6" p-id="33737"></path></svg>