<?xml version="1.0" standalone="no"?><!DOCTYPE svg PUBLIC "-//W3C//DTD SVG 1.1//EN" "http://www.w3.org/Graphics/SVG/1.1/DTD/svg11.dtd"><svg t="1739433900939" class="icon" viewBox="0 0 1024 1024" version="1.1" xmlns="http://www.w3.org/2000/svg" p-id="20471" width="128" height="128" xmlns:xlink="http://www.w3.org/1999/xlink"><path d="M615.616 874.664c155.424 0 259.048-146.28 259.048-256 0-109.712-103.624-256-259.048-256-138.096 0-253.176 89.304-314.608 165.136-2.848-11.712-7.392-24.152-13.816-37.224-17.264-35.12-55.056-60.24-85.096-75.584-22.272-11.376-47.272 2.856-50.016 27.72-4.28 38.776-5.776 93.784 12.512 130.976 9.872 20.08 20.88 34.88 32.384 44.976-11.504 10.104-22.512 24.904-32.384 44.984-18.288 37.2-16.8 92.2-12.512 130.976 2.744 24.856 27.744 39.096 50.016 27.72 30.04-15.352 67.832-40.48 85.096-75.584 6.424-13.072 10.96-25.52 13.816-37.224 61.432 75.824 176.52 165.128 314.608 165.128z" fill="#FFAA46" p-id="20472"></path><path d="M197.592 161.536c9.12-6.184 22.352-6.184 31.48 0a237.712 237.712 0 0 0 133.6 41.128c46.608 0 93.2-13.728 133.584-41.12 9.128-6.192 22.36-6.192 31.488 0a237.712 237.712 0 0 0 133.592 41.12c46.608 0 93.2-13.728 133.592-41.12 9.12-6.192 22.352-6.192 31.48 0a238.92 238.92 0 0 0 48.592 25.376v177.776a7.12 7.12 0 0 0-0.024 0.272l-0.016 0.256a38.48 38.48 0 0 1-0.496 3.776 39.92 39.92 0 0 1-3.96 11.648 24.272 24.272 0 0 1-8.704 9.424c-3.832 2.36-10.424 4.928-21.8 4.928-11.376 0-17.968-2.568-21.8-4.928a24.272 24.272 0 0 1-8.704-9.424 39.92 39.92 0 0 1-3.96-11.648 38.48 38.48 0 0 1-0.52-4.12l-0.008-0.136-0.008-0.176A29 29 0 0 0 776 335.928a29.056 29.056 0 0 0-29 29.056v0.616a54.816 54.816 0 0 0 0.08 2.192c-38.184-21.144-82.432-34.128-131.464-34.128-128.328 0-236.408 70.352-305.28 140.32-22.216-38.216-57.24-65.504-95.04-84.816-41.296-21.096-87.184 6.4-92.04 50.36-5.848 52.984-6.616 125.72 34.216 179.136-40.832 53.424-40.064 126.16-34.216 179.144 4.856 43.952 50.744 71.456 92.04 50.36 37.8-19.32 72.824-46.6 95.04-84.808 68.872 69.96 176.952 140.304 305.28 140.304 87.384 0 159.576-41.224 209.352-96.432 49.328-54.72 78.696-125.416 78.696-188.56 0-54.68-22.008-115-59.936-165.728 19-0.544 35.168-5.288 48.472-13.48a82.24 82.24 0 0 0 29.296-31.192 97.392 97.392 0 0 0 10.04-28.96 95.336 95.336 0 0 0 1.432-12.68l0.024-1.04 0.008-0.608V201.128a237.28 237.28 0 0 0 27 1.536 32 32 0 0 0 0-64 173.696 173.696 0 0 1-97.664-30.088c-30.816-20.904-72.52-20.904-103.336 0a173.712 173.712 0 0 1-97.664 30.088 173.712 173.712 0 0 1-97.672-30.088c-30.816-20.904-72.512-20.904-103.328 0a173.712 173.712 0 0 1-97.672 30.088 173.712 173.712 0 0 1-97.664-30.088c-30.816-20.904-72.52-20.904-103.336 0A173.72 173.72 0 0 1 64 138.664a32 32 0 1 0 0 64c46.608 0 93.2-13.728 133.592-41.12z m125.952 384.52c58.56-72.296 166.2-154.392 292.072-154.392 68.04 0 125.376 31.92 166.272 77.28 41.336 45.84 63.776 103.152 63.776 149.72s-22.44 103.88-63.776 149.728c-40.896 45.36-98.232 77.272-166.272 77.272-125.864 0-233.504-82.096-292.08-154.384a29 29 0 0 0-50.704 11.392c-10.136 41.632-40.784 71.8-83.928 93.84a6.2 6.2 0 0 1-2.984 0.8 4.24 4.24 0 0 1-2-0.552c-1.152-0.64-2.664-2.16-3.016-5.32-6.656-60.296-2.08-118.24 35.2-150.976a29 29 0 0 0 0-43.6c-37.288-32.72-41.856-90.68-35.2-150.96 0.352-3.176 1.864-4.688 3.024-5.336a4.24 4.24 0 0 1 1.992-0.552 6.2 6.2 0 0 1 2.984 0.8c43.144 22.048 73.792 52.216 83.928 93.84a29 29 0 0 0 50.712 11.4z m291.464-99.72a29 29 0 0 1 5.32 40.672c-23.24 30.24-36.664 79.344-36.664 131.656 0 52.32 13.424 101.424 36.664 131.664a29 29 0 1 1-45.992 35.344c-33.648-43.792-48.672-107-48.672-167.008 0-60 15.024-123.216 48.672-167a29 29 0 0 1 40.672-5.328z m117.992 108.328a29 29 0 0 0-58 0V576a29 29 0 0 0 58 0v-21.336z" fill="#200000" p-id="20473"></path></svg>